<?xml version="1.0" encoding="UTF-8"?><svg id="Layer_1" xmlns="http://www.w3.org/2000/svg" viewBox="0 0 710 350"><defs><style>.cls-1{fill:#76d57a;}.cls-1,.cls-2,.cls-3,.cls-4,.cls-5{stroke-width:0px;}.cls-2{fill:#45a6ff;}.cls-3{fill:#ca9a68;}.cls-4{fill:#dbd3ca;}.cls-5{fill:#fefdf8;}</style></defs><path class="cls-3" d="m135.39,219.86c-2.04,11.79-13.23,19.68-24.98,17.63-11.75-2.05-19.61-13.28-17.57-25.06,2.04-11.79,13.18-19.68,24.98-17.63,11.75,2.05,19.61,13.28,17.57,25.06Z"/><path class="cls-1" d="m159.09,168.91c-2.04,11.79-13.23,19.68-24.98,17.63-11.75-2.05-19.61-13.28-17.57-25.06,2.04-11.79,13.23-19.68,24.98-17.63,11.75,2.05,19.61,13.28,17.57,25.06Z"/><path class="cls-5" d="m186.42,117.96c-2.04,11.79-13.23,19.68-24.98,17.63-11.75-2.05-19.61-13.28-17.57-25.06,2.04-11.79,13.23-19.68,24.98-17.63,11.75,2.05,19.61,13.28,17.57,25.06Z"/><path class="cls-2" d="m194.9,219.86c2.04,11.79,13.23,19.68,24.98,17.63,11.75-2.05,19.61-13.28,17.57-25.06-2.04-11.79-13.23-19.68-24.98-17.63-11.75,2.05-19.61,13.28-17.57,25.06Z"/><path class="cls-4" d="m170.12,168.91c2.04,11.79,13.23,19.68,24.98,17.63,11.75-2.05,19.61-13.28,17.57-25.06-2.04-11.79-13.23-19.68-24.98-17.63-11.75,2.05-19.61,13.28-17.57,25.06Z"/><path class="cls-5" d="m304.44,93.91h12.63l23.18,66.5h-9.88l-5.89-17.29h-27.46l-5.89,17.29h-9.88l23.18-66.5Zm17.1,40.76l-10.55-30.5h-.57l-10.45,30.5h21.57Z"/><path class="cls-5" d="m347.1,93.9h9.03v37.63h.57l18.72-18.62h12.35l-18.62,18.33,18.62,29.17h-10.54l-14.54-22.9-6.55,6.46v16.44h-9.03v-66.51Z"/><path class="cls-5" d="m388.9,136.66c0-14.06,10.26-24.79,23.75-24.79s21.95,9.4,21.95,22.71c0,2-.09,3.04-.28,4.37h-35.91c.76,8.65,6.18,14.06,14.25,14.06,5.51,0,10.64-2.85,11.97-6.65h9.41c-1.71,8.83-10.54,15.1-21.28,15.1-14.06,0-23.85-10.17-23.85-24.8Zm36.01-5.03c-.57-6.75-5.32-11.4-12.06-11.4s-12.45,4.66-14.06,11.4h26.13Z"/><path class="cls-5" d="m442.95,112.91h7.98l.48,6.27h.57c2.56-4.27,7.79-6.84,13.96-6.84,1.14,0,2.19.1,2.95.29v9.12c-1.24-.19-1.71-.19-3.04-.19-8.84,0-13.87,5.89-13.87,16.25v22.61h-9.03v-47.5Z"/><path class="cls-5" d="m282.69,217.66h9.98c1.14,7.41,6.56,11.4,13.68,11.4,7.5,0,13.11-4.18,13.11-9.88s-3.42-8.74-10.83-11.12l-8.46-2.75c-10.17-3.33-15.2-9.21-15.2-18.14,0-10.17,9.22-18.05,20.9-18.05s21.47,7.98,21.95,18.15h-9.98c-.67-5.51-5.6-9.5-11.97-9.5s-11.31,4.18-11.31,9.41c0,4.84,3.04,7.5,10.35,9.88l7.22,2.28c11.4,3.61,16.91,10.07,16.91,19.86,0,10.64-9.79,18.53-22.71,18.53s-22.9-7.79-23.66-20.04Z"/><path class="cls-5" d="m334.77,212.91c0-14.06,10.26-24.79,23.75-24.79s21.95,9.4,21.95,22.71c0,1.99-.09,3.04-.28,4.37h-35.91c.76,8.65,6.18,14.06,14.25,14.06,5.51,0,10.64-2.85,11.97-6.65h9.41c-1.71,8.84-10.54,15.11-21.28,15.11-14.06,0-23.85-10.17-23.85-24.79Zm36.01-5.04c-.57-6.75-5.32-11.4-12.06-11.4s-12.45,4.66-14.06,11.4h26.13Z"/><path class="cls-5" d="m387.21,212.91c0-14.35,10.07-24.79,24.04-24.79,11.5,0,20.24,6.84,21.66,17h-9.5c-1.23-5.13-5.98-8.55-12.16-8.55-8.65,0-14.63,6.74-14.63,16.34s5.99,16.34,14.63,16.34c6.18,0,10.93-3.42,12.16-8.55h9.5c-1.42,10.17-10.17,17-21.66,17-13.97,0-24.04-10.45-24.04-24.79Z"/><path class="cls-5" d="m440.5,219.75v-30.59h9.03v28.88c0,6.93,3.9,11.21,10.17,11.21s11.02-4.94,11.02-12.16v-27.93h9.03v47.5h-7.98l-.57-5.04h-.57c-2.76,3.9-7.13,6.08-12.26,6.08-10.64,0-17.86-7.32-17.86-17.96Z"/><path class="cls-5" d="m490.54,189.16h7.98l.48,6.27h.57c2.56-4.27,7.79-6.84,13.96-6.84,1.14,0,2.19.09,2.95.29v9.12c-1.24-.19-1.71-.19-3.04-.19-8.84,0-13.87,5.89-13.87,16.25v22.61h-9.03v-47.5Z"/><path class="cls-5" d="m521.7,175.48c0-3.42,2.66-5.99,5.89-5.99s5.98,2.57,5.98,5.99-2.75,5.89-5.98,5.89-5.89-2.47-5.89-5.89Zm1.42,13.68h9.03v47.5h-9.03v-47.5Z"/><path class="cls-5" d="m548.01,223.74v-26.5h-9.21v-8.08h1.9c5.42,0,7.69-2.95,8.08-9.12l.28-4.75h7.98v13.87h11.21v8.08h-11.21v25.84c0,3.99,2.57,6.55,6.46,6.55,1.24,0,2.85-.29,4.09-.67l1.42,7.5c-1.81.76-4.08,1.24-6.46,1.24-8.93,0-14.54-4.75-14.54-13.96Z"/><path class="cls-5" d="m573.19,254.71l2.75-7.03c1.9.85,3.42,1.14,5.51,1.14,4.08,0,7.31-2.18,8.83-6.84l1.8-5.32h-2.75l-18.15-47.5h9.88l13.77,38.29h.57l12.25-38.29h9.69l-18.43,54.72c-2.76,8.17-9.22,12.83-17.1,12.83-3.23,0-6.17-.67-8.65-2Z"/></svg>