<?xml version="1.0" encoding="utf-8"?>
<!-- Generator: Adobe Illustrator 27.5.0, SVG Export Plug-In . SVG Version: 6.00 Build 0)  -->
<svg version="1.1" id="Layer_1" xmlns="http://www.w3.org/2000/svg" xmlns:xlink="http://www.w3.org/1999/xlink" x="0px" y="0px"
	 viewBox="0 0 350 350" style="enable-background:new 0 0 350 350;" xml:space="preserve">
<style type="text/css">
	.st0{fill:#CA9A68;}
	.st1{fill:#76D57A;}
	.st2{fill:#2D3353;}
	.st3{fill:#45A6FF;}
	.st4{fill:#DBD3CA;}
</style>
<g>
	<path class="st0" d="M145.3,227.4c-2,11.8-13.2,19.7-25,17.6c-11.7-2-19.6-13.3-17.6-25.1c2-11.8,13.2-19.7,25-17.6
		C139.4,204.4,147.3,215.6,145.3,227.4z"/>
	<g>
		<path class="st1" d="M169,176.5c-2,11.8-13.2,19.7-25,17.6c-11.7-2.1-19.6-13.3-17.6-25.1c2-11.8,13.2-19.7,25-17.6
			C163.1,153.5,171,164.7,169,176.5z"/>
	</g>
	<g>
		<path class="st2" d="M196.3,125.5c-2,11.8-13.2,19.7-25,17.6c-11.7-2.1-19.6-13.3-17.6-25.1c2-11.8,13.2-19.7,25-17.6
			C190.5,102.5,198.3,113.7,196.3,125.5z"/>
	</g>
	<g>
		<path class="st3" d="M204.8,227.4c2,11.8,13.2,19.7,25,17.6c11.7-2,19.6-13.3,17.6-25.1c-2-11.8-13.2-19.7-25-17.6
			C210.6,204.4,202.7,215.6,204.8,227.4z"/>
	</g>
	<path class="st4" d="M180,176.5c2,11.8,13.2,19.7,25,17.6c11.7-2.1,19.6-13.3,17.6-25.1c-2-11.8-13.2-19.7-25-17.6
		C185.8,153.5,177.9,164.7,180,176.5z"/>
</g>
</svg>
